<svg fill="#ffffff" height="200px" width="200px" version="1.1" id="Layer_1" xmlns="http://www.w3.org/2000/svg" xmlns:xlink="http://www.w3.org/1999/xlink" viewBox="0 0 512 512" xml:space="preserve" stroke="#ffffff"><g id="SVGRepo_bgCarrier" stroke-width="0"></g><g id="SVGRepo_tracerCarrier" stroke-linecap="round" stroke-linejoin="round"></g><g id="SVGRepo_iconCarrier"> <g> <g> <path d="M422.872,72.654h-4.909c-6.447,0-11.675,5.228-11.675,11.675c0,6.447,5.228,11.675,11.675,11.675h4.909 c6.447,0,11.675-5.228,11.675-11.675C434.547,77.882,429.319,72.654,422.872,72.654z"></path> </g> </g> <g> <g> <path d="M469.211,72.654h-12.136c-6.447,0-11.675,5.228-11.675,11.675c0,6.447,5.228,11.675,11.675,11.675h12.136 c10.719,0,19.439,8.721,19.439,19.439v281.113c0,10.719-8.721,19.439-19.439,19.439H42.789c-10.719,0-19.439-8.721-19.439-19.439 V115.443c0-10.719,8.721-19.439,19.439-19.439h340.44c6.447,0,11.675-5.228,11.675-11.675c0-6.447-5.228-11.675-11.675-11.675 H42.789C19.195,72.654,0,91.849,0,115.443v281.113c0,23.594,19.195,42.789,42.789,42.789h426.422 c23.594,0,42.789-19.195,42.789-42.789V115.443C512,91.849,492.805,72.654,469.211,72.654z"></path> </g> </g> <g> <g> <path d="M229.497,244.325c-6.447,0-11.675,5.228-11.675,11.675c0,12.399-10.087,22.486-22.486,22.486 c-12.399,0-22.487-10.087-22.487-22.486c0-12.399,10.088-22.486,22.487-22.486c6.447,0,11.675-5.228,11.675-11.675 c0-6.447-5.228-11.675-11.675-11.675c-25.274,0-45.838,20.562-45.838,45.836c0,25.274,20.562,45.836,45.838,45.836 c25.273,0,45.836-20.562,45.836-45.836C241.173,249.553,235.946,244.325,229.497,244.325z"></path> </g> </g> <g> <g> <path d="M195.336,165.308c-6.447,0-11.675,5.228-11.675,11.675c0,6.447,5.228,11.675,11.675,11.675 c37.133,0,67.342,30.209,67.342,67.342c0,6.447,5.228,11.675,11.675,11.675s11.675-5.228,11.675-11.675 C286.028,205.992,245.344,165.308,195.336,165.308z"></path> </g> </g> <g> <g> <path d="M195.337,323.342c-37.134,0-67.343-30.209-67.343-67.342c0-6.447-5.228-11.675-11.675-11.675 c-6.447,0-11.675,5.228-11.675,11.675c0,50.008,40.685,90.692,90.693,90.692c6.447,0,11.675-5.228,11.675-11.675 C207.012,328.57,201.784,323.342,195.337,323.342z"></path> </g> </g> <g> <g> <path d="M420.537,122.087c-26.421,0-47.915,21.489-47.915,47.903c0,14.61,6.751,28.257,17.817,37.239l-30.665,66.262 l-30.228,8.155c1.599-8.412,2.434-16.98,2.434-25.646c0-75.346-61.299-136.645-136.645-136.645 c-75.353,0-136.658,61.299-136.658,136.645s61.305,136.645,136.658,136.645c55.463,0,105.487-33.796,126.41-84.71l49.376-13.321 c3.336-0.9,6.103-3.233,7.554-6.368l32.94-71.182c2.915,0.548,5.891,0.839,8.92,0.839c26.421,0,47.915-21.494,47.915-47.915 C468.452,143.576,446.958,122.087,420.537,122.087z M303.861,288.576l-47.959,12.938c-6.225,1.679-9.91,8.089-8.232,14.314 c1.405,5.207,6.118,8.637,11.265,8.637c1.005,0,2.029-0.132,3.047-0.406l29.37-7.924c-20.426,32.523-56.555,53.16-96.015,53.16 c-62.478,0-113.308-50.824-113.308-113.295s50.83-113.295,113.308-113.295c62.471,0,113.295,50.824,113.295,113.295 C308.633,267.121,307.017,278.048,303.861,288.576z M422.07,194.477l9.062-19.584c2.707-5.852,0.16-12.79-5.693-15.498 c-5.853-2.713-12.791-0.159-15.497,5.693l-9.07,19.599c-3.113-4.175-4.899-9.311-4.899-14.697 c0-13.538,11.019-24.553,24.564-24.553s24.564,11.016,24.564,24.553C445.102,183.018,434.9,193.678,422.07,194.477z"></path> </g> </g> <g> <g> <path d="M458.518,357.445h-4.543v-25.557c0-6.447-5.228-11.675-11.675-11.675c-6.447,0-11.675,5.228-11.675,11.675v25.557h-4.542 c-6.447,0-11.675,5.228-11.675,11.675c0,6.447,5.228,11.675,11.675,11.675h4.542v5.581c0,6.447,5.227,11.675,11.675,11.675 c6.447,0,11.675-5.228,11.675-11.675v-5.581h4.543c6.447,0,11.675-5.228,11.675-11.675 C470.193,362.673,464.964,357.445,458.518,357.445z"></path> </g> </g> <g> <g> <path d="M384.299,337.469h-4.542v-5.581c0-6.447-5.228-11.675-11.675-11.675c-6.447,0-11.675,5.228-11.675,11.675v5.581h-4.543 c-6.447,0-11.675,5.228-11.675,11.675c0,6.447,5.228,11.675,11.675,11.675h4.543v25.557c0,6.447,5.227,11.675,11.675,11.675 c6.447,0,11.675-5.228,11.675-11.675v-25.557h4.542c6.447,0,11.675-5.228,11.675-11.675 C395.974,342.697,390.746,337.469,384.299,337.469z"></path> </g> </g> <g> <g> <path d="M56.357,112.957c-6.447,0-11.675,5.228-11.675,11.675v11.115c0,6.447,5.228,11.675,11.675,11.675 c6.447,0,11.675-5.228,11.675-11.675v-11.115C68.032,118.185,62.804,112.957,56.357,112.957z"></path> </g> </g> </g></svg>